<svg width="40" height="40" viewBox="0 0 40 40" fill="none" xmlns="http://www.w3.org/2000/svg">
<path d="M40 20C40 31.0457 31.0457 40 20 40C8.9543 40 0 31.0457 0 20C0 8.9543 8.9543 0 20 0C31.0457 0 40 8.9543 40 20Z" fill="#FFFDFD"/>
<g style="mix-blend-mode:darken" filter="url(#filter0_d_3:8)">
<path d="M19.652 14.264L16.824 22.608H22.452L19.652 14.264ZM11.14 30V28.852L13.492 28.488L19.456 11.128H21.22L27.184 28.6L29.284 28.852V30H21.668V28.852L24.412 28.516L22.872 23.924H16.376L14.808 28.488L17.552 28.852V30H11.14ZM18.448 9.14C19.3067 8.22533 20.184 7.348 21.08 6.508C21.472 6.116 21.7987 5.84533 22.06 5.696C22.3213 5.528 22.5733 5.444 22.816 5.444C23.1147 5.444 23.3667 5.53733 23.572 5.724C23.7773 5.892 23.88 6.116 23.88 6.396C23.88 6.63867 23.7773 6.88133 23.572 7.124C23.3853 7.36667 23.0213 7.63733 22.48 7.936C21.9013 8.25333 21.3133 8.57067 20.716 8.888C20.1373 9.20533 19.5493 9.52267 18.952 9.84L18.448 9.14Z" fill="#461C71"/>
<path d="M8.00575 30V28.852L10.5257 28.488V12.724L8.00575 12.416V11.268H13.1857L19.4578 26.668L25.3938 11.268H30.9098V12.416L28.3338 12.724C28.3151 13.9 28.2964 15.0947 28.2778 16.308C28.2778 17.5213 28.2778 18.7347 28.2778 19.948V21.32C28.2778 22.5147 28.2778 23.7187 28.2778 24.932C28.2964 26.1267 28.3151 27.3307 28.3338 28.544L30.9098 28.852V30H23.2938V28.852L25.6458 28.544C25.6831 27.368 25.7017 26.1733 25.7017 24.96C25.7017 23.7467 25.7017 22.5427 25.7017 21.348V14.376L19.6258 30H18.2258L11.8138 14.376L11.9817 19.668V28.488L14.2778 28.852V30H8.00575Z" fill="black"/>
</g>
<defs>
<filter id="filter0_d_3:8" x="4.00575" y="5.444" width="30.904" height="32.556" filterUnits="userSpaceOnUse" color-interpolation-filters="sRGB">
<feFlood flood-opacity="0" result="BackgroundImageFix"/>
<feColorMatrix in="SourceAlpha" type="matrix" values="0 0 0 0 0 0 0 0 0 0 0 0 0 0 0 0 0 0 127 0" result="hardAlpha"/>
<feOffset dy="4"/>
<feGaussianBlur stdDeviation="2"/>
<feComposite in2="hardAlpha" operator="out"/>
<feColorMatrix type="matrix" values="0 0 0 0 0 0 0 0 0 0 0 0 0 0 0 0 0 0 0.25 0"/>
<feBlend mode="normal" in2="BackgroundImageFix" result="effect1_dropShadow_3:8"/>
<feBlend mode="normal" in="SourceGraphic" in2="effect1_dropShadow_3:8" result="shape"/>
</filter>
</defs>
</svg>
