<svg width="148" height="77" viewBox="0 0 148 77" fill="none" xmlns="http://www.w3.org/2000/svg">
<path d="M0 0H148V77H0V0Z" fill="white"/>
<g style="mix-blend-mode:darken" filter="url(#filter0_d_2:114)">
<path d="M10.804 47L11.028 45.88L13.604 45.516L17.328 29.668L14.92 29.388L15.144 28.24H20.324L23.544 43.388L32.476 28.24H37.404L37.292 29.388L34.632 29.724L33.4 38.264C33.232 39.4587 33.064 40.6627 32.896 41.876C32.7467 43.0893 32.5973 44.3027 32.448 45.516L34.968 45.824L34.828 47H27.548L27.716 45.824L29.984 45.544L32.14 30.928L22.76 46.972H21.948L18.308 31.124L14.892 45.516L17.468 45.88L17.244 47H10.804ZM71.2151 29.388L71.4391 28.24H78.0471L77.8231 29.388L75.5831 29.752L72.3351 47.28H71.4671L62.6471 31.684L60.0151 45.516L62.8151 45.88L62.6471 47H56.1231L56.3751 45.88L58.6711 45.544L61.6111 29.864L61.4991 29.668L59.1191 29.388L59.3711 28.24H63.6551L71.8031 42.912L74.2111 29.752L71.2151 29.388ZM75.1294 47L75.3534 45.88L77.6774 45.544L87.2814 28.24H88.9054L91.3694 45.572L93.8334 45.88L93.6094 47H86.1894L86.4134 45.88L88.8494 45.6L88.1214 40.196H82.0174L79.1894 45.516L81.6254 45.88L81.4014 47H75.1294ZM82.6894 38.908H87.9534L86.8894 30.984L82.6894 38.908ZM103.256 47.42C101.688 47.42 100.334 47.0747 99.1956 46.384C98.057 45.6933 97.1796 44.732 96.5636 43.5C95.9476 42.2493 95.6396 40.7933 95.6396 39.132C95.6396 37.5827 95.9196 36.1267 96.4796 34.764C97.0396 33.4013 97.805 32.1973 98.7756 31.152C99.765 30.1067 100.904 29.2947 102.192 28.716C103.498 28.1187 104.88 27.82 106.336 27.82C107.082 27.82 107.838 27.932 108.604 28.156C109.388 28.3613 110.209 28.744 111.068 29.304L110.424 33.224H108.828V29.78C107.969 29.4067 107.054 29.22 106.084 29.22C104.964 29.22 103.918 29.4813 102.948 30.004C101.996 30.5267 101.156 31.2453 100.428 32.16C99.7183 33.056 99.1676 34.092 98.7756 35.268C98.3836 36.444 98.1876 37.6947 98.1876 39.02C98.1876 40.588 98.4583 41.8947 98.9996 42.94C99.5596 43.9667 100.297 44.7413 101.212 45.264C102.126 45.768 103.116 46.02 104.18 46.02C104.609 46.02 105.029 45.9827 105.44 45.908C105.85 45.8333 106.261 45.7307 106.672 45.6L107.82 42.1H109.5L108.716 46.16C107.969 46.4773 107.166 46.7667 106.308 47.028C105.468 47.2893 104.45 47.42 103.256 47.42Z" fill="black"/>
<path d="M36.1372 47L36.3612 45.88L38.6852 45.544L48.2892 28.24H49.9132L52.3772 45.572L54.8412 45.88L54.6172 47H47.1972L47.4212 45.88L49.8572 45.6L49.1292 40.196H43.0252L40.1972 45.516L42.6332 45.88L42.4092 47H36.1372ZM43.6972 38.908H48.9612L47.8972 30.984L43.6972 38.908ZM109.801 47L110.025 45.88L112.349 45.544L121.953 28.24H123.577L126.041 45.572L128.505 45.88L128.281 47H120.861L121.085 45.88L123.521 45.6L122.793 40.196H116.689L113.861 45.516L116.297 45.88L116.073 47H109.801ZM117.361 38.908H122.625L121.561 30.984L117.361 38.908ZM121.729 26.42C122.271 25.972 122.803 25.5333 123.325 25.104C123.848 24.656 124.371 24.208 124.893 23.76C125.36 23.3867 125.705 23.1253 125.929 22.976C126.153 22.808 126.443 22.724 126.797 22.724C127.077 22.724 127.32 22.808 127.525 22.976C127.731 23.144 127.833 23.3773 127.833 23.676C127.833 23.9187 127.749 24.1613 127.581 24.404C127.413 24.628 126.993 24.8987 126.321 25.216C125.631 25.5147 124.931 25.8133 124.221 26.112C123.512 26.4107 122.803 26.7187 122.093 27.036L121.729 26.42Z" fill="#461C71"/>
</g>
<defs>
<filter id="filter0_d_2:114" x="6.804" y="22.724" width="125.701" height="32.696" filterUnits="userSpaceOnUse" color-interpolation-filters="sRGB">
<feFlood flood-opacity="0" result="BackgroundImageFix"/>
<feColorMatrix in="SourceAlpha" type="matrix" values="0 0 0 0 0 0 0 0 0 0 0 0 0 0 0 0 0 0 127 0" result="hardAlpha"/>
<feOffset dy="4"/>
<feGaussianBlur stdDeviation="2"/>
<feComposite in2="hardAlpha" operator="out"/>
<feColorMatrix type="matrix" values="0 0 0 0 0 0 0 0 0 0 0 0 0 0 0 0 0 0 0.25 0"/>
<feBlend mode="normal" in2="BackgroundImageFix" result="effect1_dropShadow_2:114"/>
<feBlend mode="normal" in="SourceGraphic" in2="effect1_dropShadow_2:114" result="shape"/>
</filter>
</defs>
</svg>
